<?xml version="1.0" standalone="no"?>
<!DOCTYPE svg PUBLIC "-//W3C//DTD SVG 20010904//EN"
 "http://www.w3.org/TR/2001/REC-SVG-20010904/DTD/svg10.dtd">
<svg version="1.0" xmlns="http://www.w3.org/2000/svg"
 width="1019.000000pt" height="1019.000000pt" viewBox="0 0 1019.000000 1019.000000"
 preserveAspectRatio="xMidYMid meet">
<metadata>
Created by potrace 1.14, written by Peter Selinger 2001-2017
</metadata>
<g transform="translate(0.000000,1019.000000) scale(0.100000,-0.100000)"
fill="#000000" stroke="none">
<path d="M4828 10185 c-2 -2 -48 -6 -103 -10 -96 -6 -129 -10 -205 -20 -35 -5
-67 -8 -175 -21 -33 -3 -62 -8 -65 -9 -3 -2 -26 -6 -50 -10 -25 -3 -79 -13
-120 -22 -41 -8 -86 -17 -99 -20 -136 -25 -632 -174 -753 -226 -18 -8 -85 -35
-148 -62 -104 -43 -441 -206 -465 -225 -5 -4 -37 -22 -70 -40 -121 -67 -294
-175 -411 -258 -83 -57 -274 -204 -304 -232 -9 -8 -63 -55 -120 -105 -117
-100 -363 -344 -455 -449 -33 -38 -76 -88 -96 -110 -138 -159 -459 -619 -512
-736 -4 -8 -17 -31 -28 -50 -75 -123 -234 -460 -304 -645 -99 -259 -200 -603
-239 -808 -52 -275 -73 -429 -93 -667 -9 -120 -10 -592 0 -725 9 -126 22 -238
42 -380 3 -19 7 -52 10 -72 3 -21 7 -45 10 -53 2 -8 7 -33 11 -55 17 -109 62
-303 107 -465 202 -713 561 -1380 1046 -1944 183 -212 468 -485 693 -663 456
-361 966 -639 1508 -824 135 -46 403 -125 458 -135 13 -3 54 -12 91 -20 77
-18 95 -22 136 -29 17 -3 37 -8 45 -10 8 -2 33 -6 55 -10 22 -3 65 -10 95 -15
30 -5 78 -12 105 -15 28 -3 70 -8 95 -12 48 -6 57 -7 225 -19 202 -15 669 -9
835 11 19 2 62 7 95 10 96 9 217 25 255 35 19 5 54 11 77 14 67 8 305 63 443
102 443 123 870 306 1270 542 83 50 338 218 350 231 3 3 50 40 105 81 332 249
667 579 926 910 40 52 76 97 79 100 3 3 32 43 64 90 31 47 66 96 76 110 27 37
150 229 150 235 0 2 21 39 46 82 25 43 49 85 54 93 17 29 170 339 170 344 0 2
15 37 33 78 19 40 39 89 46 108 7 19 17 44 22 55 52 120 187 548 206 654 2 14
13 62 23 106 11 44 21 91 24 105 2 14 7 41 10 60 3 19 8 46 10 60 2 14 7 41
10 60 12 69 16 96 21 140 4 25 10 79 15 120 30 235 33 861 5 1040 -2 14 -6 52
-10 85 -6 58 -21 169 -31 230 -9 55 -23 140 -28 165 -14 76 -70 310 -91 380
-1 3 -5 19 -9 35 -16 63 -111 344 -151 450 -156 402 -354 767 -620 1140 -72
102 -198 263 -241 310 -11 12 -48 54 -83 95 -79 92 -370 382 -437 436 -27 21
-58 47 -69 58 -49 46 -259 210 -355 277 -335 237 -725 446 -1107 594 -185 72
-546 184 -673 209 -14 3 -34 7 -45 10 -83 19 -120 27 -153 32 -20 3 -45 7 -54
10 -25 7 -58 13 -108 20 -25 3 -56 7 -70 10 -14 2 -49 6 -78 10 -29 3 -61 7
-70 9 -9 1 -51 6 -92 10 -41 3 -93 9 -115 11 -45 5 -642 14 -647 9z"/>
</g>
</svg>
