<?xml version="1.0" standalone="no"?>
<!DOCTYPE svg PUBLIC "-//W3C//DTD SVG 20010904//EN"
 "http://www.w3.org/TR/2001/REC-SVG-20010904/DTD/svg10.dtd">
<svg version="1.0" xmlns="http://www.w3.org/2000/svg"
 width="640.000000pt" height="640.000000pt" viewBox="0 0 640.000000 640.000000"
 preserveAspectRatio="xMidYMid meet">
<metadata>
Created by potrace 1.14, written by Peter Selinger 2001-2017
</metadata>
<g transform="translate(0.000000,640.000000) scale(0.100000,-0.100000)"
fill="#000000" stroke="none">
<path d="M3042 6388 c-15 -15 -16 -48 -2 -48 6 0 10 6 10 14 0 8 7 16 15 20 8
3 15 10 15 16 0 14 -23 13 -38 -2z"/>
<path d="M3595 6390 c-4 -7 3 -8 22 -4 38 9 42 14 10 14 -14 0 -29 -5 -32 -10z"/>
<path d="M3525 6343 c-16 -14 -25 -24 -20 -22 6 3 25 11 43 18 17 7 32 17 32
22 0 17 -25 9 -55 -18z"/>
<path d="M3006 6311 c-4 -7 -5 -15 -2 -18 9 -9 19 4 14 18 -4 11 -6 11 -12 0z"/>
<path d="M5215 6315 c-5 -2 -27 -6 -49 -10 -26 -4 -35 -10 -28 -17 7 -7 28 -5
66 6 31 9 56 19 56 21 0 6 -29 5 -45 0z"/>
<path d="M3449 6293 c-13 -15 -12 -15 11 -3 34 17 36 20 18 20 -9 0 -22 -7
-29 -17z"/>
<path d="M4794 6281 c3 -5 15 -7 26 -4 28 7 25 13 -6 13 -14 0 -23 -4 -20 -9z"/>
<path d="M3368 6247 c-14 -12 -35 -27 -45 -34 -17 -11 -17 -12 0 -12 9 -1 17
4 17 9 0 6 5 10 10 10 6 0 16 5 23 10 7 6 21 17 32 25 15 11 16 14 5 15 -8 0
-27 -10 -42 -23z"/>
<path d="M4370 6260 c0 -5 13 -10 29 -10 17 0 33 5 36 10 4 6 -8 10 -29 10
-20 0 -36 -4 -36 -10z"/>
<path d="M3154 6225 c-10 -8 -14 -15 -8 -15 6 0 17 7 24 15 16 19 9 19 -16 0z"/>
<path d="M2856 6215 c-11 -8 -18 -17 -15 -19 2 -3 15 4 29 14 14 11 21 20 15
19 -5 0 -19 -6 -29 -14z"/>
<path d="M2935 6210 c-10 -11 -13 -20 -8 -20 13 0 38 29 31 35 -3 3 -13 -4
-23 -15z"/>
<path d="M3920 6220 c0 -5 6 -10 14 -10 8 0 18 5 21 10 3 6 -3 10 -14 10 -12
0 -21 -4 -21 -10z"/>
<path d="M4948 6223 c7 -3 16 -2 19 1 4 3 -2 6 -13 5 -11 0 -14 -3 -6 -6z"/>
<path d="M3755 6200 c-31 -8 -18 -14 25 -10 30 2 54 21 25 19 -11 -1 -33 -5
-50 -9z"/>
<path d="M4848 6203 c6 -2 18 -2 25 0 6 3 1 5 -13 5 -14 0 -19 -2 -12 -5z"/>
<path d="M3655 6180 c3 -5 17 -10 30 -10 13 0 27 5 30 10 4 6 -8 10 -30 10
-22 0 -34 -4 -30 -10z"/>
<path d="M3016 6135 c-21 -19 -33 -35 -28 -35 6 0 28 16 49 35 21 19 34 35 28
35 -5 0 -27 -16 -49 -35z"/>
<path d="M3558 6163 c12 -2 32 -2 45 0 12 2 2 4 -23 4 -25 0 -35 -2 -22 -4z"/>
<path d="M4576 6135 c-18 -14 -15 -15 38 -15 51 0 57 2 46 15 -16 19 -59 19
-84 0z"/>
<path d="M2814 6073 c-76 -86 -93 -103 -189 -192 -99 -91 -71 -85 33 7 14 12
45 34 69 50 24 15 41 33 38 39 -4 12 49 81 96 126 17 15 26 37 16 37 -2 0 -30
-30 -63 -67z"/>
<path d="M3165 6095 c-16 -13 -27 -26 -25 -29 3 -2 27 1 54 8 34 9 44 15 32
19 -10 4 -14 11 -11 17 12 19 -20 9 -50 -15z"/>
<path d="M3268 6103 c7 -3 16 -2 19 1 4 3 -2 6 -13 5 -11 0 -14 -3 -6 -6z"/>
<path d="M4740 6106 c0 -2 14 -6 30 -8 17 -3 30 -1 30 4 0 4 -13 8 -30 8 -16
0 -30 -2 -30 -4z"/>
<path d="M4848 6083 c12 -2 30 -2 40 0 9 3 -1 5 -23 4 -22 0 -30 -2 -17 -4z"/>
<path d="M4990 6056 c19 -8 47 -15 63 -15 15 -1 27 -5 27 -11 0 -5 21 -10 46
-10 25 0 54 -5 65 -11 11 -5 28 -8 37 -6 27 6 -29 26 -80 28 -24 1 -47 5 -53
9 -10 7 -44 15 -107 25 l-33 5 35 -14z"/>
<path d="M2894 6050 c-23 -9 -42 -30 -27 -30 4 0 19 9 33 20 27 21 26 23 -6
10z"/>
<path d="M2596 6035 c-11 -8 -16 -15 -10 -15 5 0 18 7 28 15 11 8 16 15 10 15
-5 0 -18 -7 -28 -15z"/>
<path d="M5378 5983 c12 -2 32 -2 45 0 12 2 2 4 -23 4 -25 0 -35 -2 -22 -4z"/>
<path d="M1616 5938 c-10 -25 -16 -52 -13 -60 7 -19 39 59 35 86 -3 16 -8 10
-22 -26z"/>
<path d="M2480 5960 c-29 -26 -20 -26 22 0 19 11 26 20 17 20 -9 0 -26 -9 -39
-20z"/>
<path d="M6375 5940 c-3 -5 -22 -10 -42 -10 -48 0 -40 -6 20 -14 43 -7 47 -6
47 13 0 22 -14 28 -25 11z"/>
<path d="M5990 5921 c0 -14 38 -21 110 -20 43 0 58 3 45 8 -32 13 -155 23
-155 12z"/>
<path d="M2345 5880 c-3 -6 1 -7 9 -4 18 7 21 14 7 14 -6 0 -13 -4 -16 -10z"/>
<path d="M6138 5833 c7 -3 16 -2 19 1 4 3 -2 6 -13 5 -11 0 -14 -3 -6 -6z"/>
<path d="M2165 5780 c-16 -11 -23 -20 -15 -20 17 0 71 39 55 40 -5 0 -23 -9
-40 -20z"/>
<path d="M2110 5749 c0 -5 5 -7 10 -4 6 3 10 8 10 11 0 2 -4 4 -10 4 -5 0 -10
-5 -10 -11z"/>
<path d="M5440 5730 c0 -5 7 -10 15 -10 8 0 15 5 15 10 0 6 -7 10 -15 10 -8 0
-15 -4 -15 -10z"/>
<path d="M3876 5696 c7 -18 29 -21 39 -6 3 6 2 10 -4 10 -5 0 -17 3 -25 6 -12
5 -15 2 -10 -10z"/>
<path d="M1501 5684 c0 -11 3 -14 6 -6 3 7 2 16 -1 19 -3 4 -6 -2 -5 -13z"/>
<path d="M3928 5673 c7 -3 16 -2 19 1 4 3 -2 6 -13 5 -11 0 -14 -3 -6 -6z"/>
<path d="M3960 5659 c0 -5 8 -13 18 -16 29 -11 134 -81 176 -118 6 -5 30 -23
54 -39 24 -16 46 -34 50 -40 4 -6 25 -24 47 -41 46 -34 273 -260 325 -325 19
-23 33 -50 32 -59 -2 -9 -1 -13 4 -9 11 11 34 -12 34 -34 0 -10 4 -17 9 -14
12 8 41 -38 41 -64 0 -14 4 -19 12 -14 7 4 8 3 4 -4 -10 -16 -26 -15 -26 2 0
7 -7 19 -16 26 -13 11 -16 10 -21 -8 -4 -15 -13 -22 -30 -22 -13 0 -21 -4 -18
-10 3 -5 1 -18 -4 -27 -6 -10 -11 -13 -11 -8 0 6 -7 19 -15 29 -12 16 -17 17
-30 6 -8 -7 -22 -10 -30 -6 -8 3 -36 -4 -61 -14 -25 -11 -59 -20 -75 -20 -19
0 -29 -5 -29 -15 0 -9 -9 -15 -23 -15 -16 0 -28 -9 -37 -27 l-14 -28 -4 27
c-5 37 -51 51 -52 15 -1 -28 -39 -57 -73 -57 -19 0 -40 -7 -47 -15 -15 -18
-42 -19 -58 -3 -9 9 -12 6 -12 -14 0 -25 -1 -26 -36 -16 -20 5 -42 7 -50 4
-15 -6 -20 -46 -5 -46 12 0 44 -50 36 -58 -3 -4 -20 9 -36 28 -26 29 -33 32
-49 22 -24 -14 -33 -15 -25 -2 3 5 -19 34 -50 63 -40 40 -53 59 -49 72 6 14 3
16 -14 11 -15 -5 -22 -2 -27 14 -4 11 -15 20 -26 20 -20 0 -20 -1 -2 -30 9
-16 21 -30 25 -30 11 0 68 -87 68 -103 0 -9 3 -17 8 -19 8 -3 42 -62 42 -73 0
-4 -6 -3 -13 3 -23 19 -62 -8 -65 -46 -2 -17 -7 -32 -12 -32 -14 0 -4 89 12
108 14 16 14 52 0 52 -8 0 -30 -60 -39 -101 -4 -20 -10 -25 -24 -22 -10 3 -19
14 -19 24 0 11 -7 19 -15 19 -17 0 -20 -16 -5 -25 6 -3 10 -18 10 -31 0 -24
-3 -25 -40 -23 -29 2 -46 -3 -64 -19 -14 -12 -32 -19 -41 -16 -19 8 -45 -13
-39 -31 7 -16 -32 -39 -53 -31 -9 4 -17 -1 -20 -14 -3 -11 -12 -20 -19 -20
-16 0 -18 -9 -6 -28 7 -9 13 -8 27 8 22 25 27 25 42 1 10 -16 9 -18 -6 -14
-11 3 -27 -5 -40 -18 -21 -22 -21 -22 -35 -3 -8 10 -11 20 -6 22 5 2 6 10 3
17 -4 11 -10 12 -23 5 -10 -6 -29 -10 -41 -10 -18 0 -20 -3 -11 -12 7 -7 12
-21 12 -33 0 -20 -1 -20 -18 1 -9 12 -30 24 -45 28 -31 7 -29 2 17 -44 24 -24
15 -36 -13 -18 -17 10 -25 10 -42 0 -11 -7 -38 -14 -59 -14 -37 0 -38 -1 -28
-24 15 -33 -3 -54 -31 -37 -16 10 -22 9 -32 -4 -11 -13 -9 -19 16 -39 29 -23
29 -24 10 -38 -18 -14 -21 -13 -29 9 -12 30 -36 41 -36 16 0 -22 45 -73 56
-63 4 4 4 1 0 -6 -5 -9 -12 -9 -27 -2 -25 14 -25 -2 1 -25 11 -10 20 -26 20
-37 0 -10 6 -18 13 -18 14 0 85 -46 125 -82 16 -14 83 -62 150 -108 66 -45
138 -100 159 -121 21 -22 65 -61 98 -88 90 -72 247 -233 237 -243 -5 -5 -38
-15 -74 -23 -90 -19 -179 -62 -274 -133 -91 -67 -101 -79 -85 -95 6 -6 11 -20
11 -30 0 -22 -7 -25 91 49 106 80 194 117 328 140 l84 14 41 -37 c74 -65 170
-179 210 -247 21 -36 41 -64 44 -62 5 6 -7 39 -50 134 -47 106 -33 123 33 40
22 -29 57 -73 77 -97 21 -24 48 -61 62 -81 14 -20 38 -52 53 -71 50 -60 167
-218 167 -226 0 -10 113 -233 117 -230 7 8 -49 298 -87 447 -11 41 -21 84 -22
94 -6 37 17 25 42 -21 14 -26 49 -81 79 -123 30 -41 83 -118 119 -170 36 -52
73 -104 84 -116 10 -11 43 -70 73 -130 60 -119 69 -113 34 21 -29 113 -28 257
1 179 19 -51 72 -155 76 -151 3 2 -7 47 -21 100 -14 52 -25 101 -25 109 2 48
119 -266 157 -421 l9 -35 11 30 c6 16 19 74 28 129 10 55 32 147 50 205 18 58
42 149 54 203 13 53 27 97 31 97 5 0 15 -9 23 -21 8 -11 40 -47 71 -79 31 -32
56 -63 56 -68 0 -6 3 -12 8 -14 11 -5 68 -80 85 -113 22 -44 159 -183 164
-167 3 7 -21 55 -51 108 -68 115 -74 131 -177 449 -5 17 -13 93 -16 171 -6
137 -5 141 17 162 57 53 165 78 223 51 13 -6 29 -25 37 -42 12 -30 13 -30 17
-9 6 30 23 28 74 -12 79 -60 136 -149 169 -261 46 -162 52 -192 46 -245 -16
-138 -68 -266 -182 -443 -68 -105 -218 -268 -265 -289 -16 -7 -29 -17 -29 -23
-2 -97 -32 -427 -49 -542 -9 -64 6 -57 38 17 12 27 25 51 30 54 4 3 14 -29 20
-72 14 -89 30 -151 64 -244 l24 -67 0 162 c-1 160 16 285 38 290 6 1 12 -41
15 -93 l5 -95 13 60 c37 170 119 435 134 435 4 0 10 -12 13 -27 3 -16 10 -42
15 -59 6 -17 10 -38 10 -47 0 -9 4 -17 8 -17 4 0 9 34 10 75 2 72 41 260 92
440 4 17 11 51 15 77 8 64 20 67 34 10 7 -26 16 -60 21 -77 4 -16 14 -61 20
-100 7 -38 16 -83 21 -99 5 -16 10 -59 10 -95 1 -36 4 -79 8 -96 6 -27 8 -24
18 30 20 103 32 176 42 275 6 52 14 115 17 140 4 25 9 521 11 1102 3 1049 3
1058 -17 1078 -26 26 -26 50 0 50 17 0 20 7 20 50 0 42 -2 49 -17 44 -17 -5
-17 -5 0 6 12 8 17 24 17 55 0 36 -4 47 -22 56 -31 16 -95 88 -111 122 -14 32
-18 33 -42 7 -10 -11 -21 -17 -25 -15 -13 8 1 45 16 45 22 0 16 27 -8 45 -21
14 -23 14 -26 -1 -2 -9 2 -20 9 -25 11 -6 11 -11 2 -20 -10 -10 -17 -8 -34 7
-20 18 -21 18 -35 -1 -8 -10 -14 -27 -14 -36 0 -21 -19 -36 -29 -22 -11 18
-39 22 -45 7 -3 -8 -18 -14 -33 -14 -22 0 -25 2 -13 10 13 9 13 10 0 10 -13 0
-13 1 0 10 12 8 11 10 -7 10 -16 0 -21 -4 -17 -15 9 -22 -9 -18 -35 7 -21 19
-27 20 -55 9 -17 -6 -89 -14 -161 -16 -71 -3 -146 -9 -166 -14 -21 -4 -43 -5
-50 0 -9 5 -22 0 -36 -13 l-23 -21 0 21 c0 19 -6 22 -40 22 -31 0 -43 -5 -56
-25 -21 -33 -28 -32 -53 8 -14 22 -21 26 -21 15 0 -19 -15 -24 -24 -10 -8 13
-77 6 -86 -8 -4 -7 -5 -21 -3 -31 6 -23 -5 -24 -43 -4 -35 18 -74 19 -75 3 0
-7 -5 -2 -11 12 -10 24 -10 24 -18 5 -7 -19 -8 -18 -14 5 -4 14 -2 38 3 53 10
26 9 28 -17 25 -21 -2 -28 2 -30 20 -4 28 -19 29 -18 1 1 -34 -18 -32 -39 3
l-20 33 -3 -29 c-2 -16 1 -33 7 -39 14 -14 14 -37 0 -37 -5 0 -8 4 -4 9 3 6
-4 15 -15 21 -11 6 -20 16 -20 22 0 9 -57 87 -103 139 -7 8 -16 23 -20 32 -3
9 -11 17 -16 17 -6 0 -17 12 -25 28 -17 30 -62 79 -124 134 -23 20 -42 42 -42
48 0 6 -8 10 -17 9 -10 -2 -36 14 -57 35 -22 21 -58 49 -80 64 -23 14 -59 40
-82 59 -23 18 -44 33 -47 33 -4 0 -31 16 -62 35 -30 20 -63 39 -73 42 -9 4
-35 19 -57 33 -49 33 -75 43 -75 29z m2290 -811 c0 -7 -4 -19 -9 -27 -11 -17
-25 3 -17 24 7 18 26 20 26 3z m-1027 -31 l25 -13 -28 -11 c-34 -13 -59 4 -38
25 15 15 11 15 41 -1z m914 -9 c-3 -8 -6 -5 -6 6 -1 11 2 17 5 13 3 -3 4 -12
1 -19z m-1632 2 c3 -5 1 -10 -4 -10 -6 0 -11 5 -11 10 0 6 2 10 4 10 3 0 8 -4
11 -10z m665 -36 c0 -2 -7 -4 -15 -4 -8 0 -15 4 -15 10 0 5 7 7 15 4 8 -4 15
-8 15 -10z m1131 -7 c-13 -13 -26 -3 -16 12 3 6 11 8 17 5 6 -4 6 -10 -1 -17z
m-1031 -68 c0 -21 -17 -7 -27 24 l-12 32 19 -24 c11 -13 20 -27 20 -32z
m-1237 -48 c3 -14 0 -17 -14 -14 -22 6 -26 33 -5 33 7 0 16 -8 19 -19z m47
-37 c0 -8 -5 -12 -10 -9 -6 4 -8 11 -5 16 9 14 15 11 15 -7z m-102 -15 c7 -12
11 -24 8 -27 -6 -6 -35 27 -36 41 0 14 15 7 28 -14z m92 -33 c0 -3 -4 -8 -10
-11 -5 -3 -10 -1 -10 4 0 6 5 11 10 11 6 0 10 -2 10 -4z m-60 -10 c0 -3 -4 -8
-10 -11 -5 -3 -10 -1 -10 4 0 6 5 11 10 11 6 0 10 -2 10 -4z m-130 -36 c0 -11
-4 -20 -10 -20 -5 0 -10 9 -10 20 0 11 5 20 10 20 6 0 10 -9 10 -20z m-180
-64 c0 -3 -4 -8 -10 -11 -5 -3 -10 -1 -10 4 0 6 5 11 10 11 6 0 10 -2 10 -4z
m-86 -45 c3 -5 -1 -11 -9 -14 -9 -4 -12 -1 -8 9 6 16 10 17 17 5z m-44 -41 c0
-5 -4 -10 -10 -10 -5 0 -10 5 -10 10 0 6 5 10 10 10 6 0 10 -4 10 -10z m-170
-110 c0 -5 -7 -10 -16 -10 -8 0 -12 5 -9 10 3 6 10 10 16 10 5 0 9 -4 9 -10z
m-35 -40 c3 -5 -1 -10 -9 -10 -8 0 -18 5 -21 10 -3 6 1 10 9 10 8 0 18 -4 21
-10z m-85 -10 c0 -5 -12 -10 -26 -10 -14 0 -23 4 -19 10 3 6 15 10 26 10 10 0
19 -4 19 -10z m-100 -65 c0 -8 -2 -15 -4 -15 -2 0 -6 7 -10 15 -3 8 -1 15 4
15 6 0 10 -7 10 -15z m80 -5 c0 -5 -4 -10 -10 -10 -5 0 -10 5 -10 10 0 6 5 10
10 10 6 0 10 -4 10 -10z m177 4 c-3 -3 -12 -4 -19 -1 -8 3 -5 6 6 6 11 1 17
-2 13 -5z m-232 -54 c-3 -5 -14 -10 -23 -9 -14 0 -13 2 3 9 27 11 27 11 20 0z"/>
<path d="M1907 5606 c-37 -30 -89 -76 -116 -103 -53 -54 -126 -161 -116 -171
3 -3 9 -1 14 6 21 35 127 171 133 172 3 0 19 12 35 28 15 15 53 48 83 74 76
65 50 60 -33 -6z"/>
<path d="M5590 5530 c0 -15 31 -25 39 -12 3 5 17 12 31 15 15 2 5 5 -22 6 -27
0 -48 -3 -48 -9z"/>
<path d="M5705 5520 c-4 -6 9 -10 32 -9 30 0 34 2 18 9 -27 12 -43 12 -50 0z"/>
<path d="M6020 5450 c8 -5 22 -9 30 -9 10 0 8 3 -5 9 -27 12 -43 12 -25 0z"/>
<path d="M1550 5415 c0 -8 5 -15 10 -15 6 0 10 7 10 15 0 8 -4 15 -10 15 -5 0
-10 -7 -10 -15z"/>
<path d="M6190 5413 c0 -5 26 -18 58 -28 31 -10 67 -22 80 -26 28 -11 72 -12
72 -1 0 4 -35 18 -77 30 -102 31 -133 36 -133 25z"/>
<path d="M1382 5350 c0 -14 2 -19 5 -12 2 6 2 18 0 25 -3 6 -5 1 -5 -13z"/>
<path d="M1551 5330 c0 -8 4 -22 9 -30 12 -18 12 -2 0 25 -6 13 -9 15 -9 5z"/>
<path d="M1645 5285 c-20 -49 -12 -57 10 -10 10 19 15 38 12 41 -3 4 -13 -11
-22 -31z"/>
<path d="M1550 5224 c0 -8 5 -12 10 -9 6 3 10 10 10 16 0 5 -4 9 -10 9 -5 0
-10 -7 -10 -16z"/>
<path d="M1621 5214 c0 -11 3 -14 6 -6 3 7 2 16 -1 19 -3 4 -6 -2 -5 -13z"/>
<path d="M1341 5204 c0 -11 3 -14 6 -6 3 7 2 16 -1 19 -3 4 -6 -2 -5 -13z"/>
<path d="M1582 5158 c-15 -15 -16 -45 -1 -54 14 -8 29 14 29 44 0 24 -10 28
-28 10z"/>
<path d="M6040 5126 c0 -9 5 -16 10 -16 6 0 10 4 10 9 0 6 -4 13 -10 16 -5 3
-10 -1 -10 -9z"/>
<path d="M6070 5098 c0 -7 16 -31 35 -53 38 -44 48 -35 13 11 -37 48 -48 58
-48 42z"/>
<path d="M1323 5015 c0 -33 2 -45 4 -27 2 18 2 45 0 60 -2 15 -4 0 -4 -33z"/>
<path d="M5980 5005 c0 -8 5 -15 10 -15 6 0 10 7 10 15 0 8 -4 15 -10 15 -5 0
-10 -7 -10 -15z"/>
<path d="M6150 4991 c0 -12 5 -21 10 -21 6 0 10 6 10 14 0 8 -4 18 -10 21 -5
3 -10 -3 -10 -14z"/>
<path d="M5995 4910 c-3 -5 1 -10 10 -10 9 0 13 5 10 10 -3 6 -8 10 -10 10 -2
0 -7 -4 -10 -10z"/>
<path d="M1315 4788 c3 -24 8 -55 11 -70 4 -22 -4 -36 -45 -80 -69 -74 -144
-169 -137 -175 7 -7 24 10 70 72 21 28 50 62 64 76 15 14 40 39 56 56 27 30
27 33 12 54 -9 13 -16 43 -16 66 0 24 -5 43 -11 43 -7 0 -9 -15 -4 -42z"/>
<path d="M3850 4750 c0 -5 5 -10 10 -10 6 0 10 5 10 10 0 6 -4 10 -10 10 -5 0
-10 -4 -10 -10z"/>
<path d="M2427 4609 c10 -17 24 -42 31 -55 7 -13 17 -24 21 -24 4 0 14 -18 21
-40 7 -22 19 -45 25 -50 7 -6 10 -21 7 -35 -3 -16 0 -25 8 -25 9 0 10 14 5 50
-7 54 -5 57 25 38 10 -7 23 -9 27 -4 9 8 -159 176 -177 176 -6 0 -3 -13 7 -31z"/>
<path d="M3751 4614 c0 -11 3 -14 6 -6 3 7 2 16 -1 19 -3 4 -6 -2 -5 -13z"/>
<path d="M3640 4530 c0 -5 9 -10 20 -10 11 0 20 5 20 10 0 6 -9 10 -20 10 -11
0 -20 -4 -20 -10z"/>
<path d="M2610 4452 c0 -12 19 -26 26 -19 2 2 -2 10 -11 17 -9 8 -15 8 -15 2z"/>
<path d="M1115 4439 c-4 -6 -5 -12 -2 -15 2 -3 7 2 10 11 7 17 1 20 -8 4z"/>
<path d="M1811 4434 c0 -11 3 -14 6 -6 3 7 2 16 -1 19 -3 4 -6 -2 -5 -13z"/>
<path d="M2650 4416 c0 -9 64 -65 69 -60 3 2 -10 18 -28 34 -31 29 -41 35 -41
26z"/>
<path d="M2206 4290 c-8 -100 -2 -132 9 -51 5 34 12 51 21 51 20 0 17 30 -5
63 l-18 28 -7 -91z"/>
<path d="M1040 4335 c-7 -9 -10 -18 -7 -21 3 -3 10 4 17 15 13 25 8 27 -10 6z"/>
<path d="M1790 4250 c0 -35 3 -61 6 -57 7 7 7 107 0 115 -3 3 -6 -23 -6 -58z"/>
<path d="M1930 4250 c0 -46 3 -61 10 -50 5 8 10 31 10 50 0 19 -5 42 -10 50
-7 11 -10 -4 -10 -50z"/>
<path d="M1164 4263 c-10 -15 -35 -60 -55 -100 -31 -61 -99 -166 -119 -183
-12 -10 -40 -55 -40 -64 0 -5 14 6 31 23 21 22 37 31 51 28 12 -4 21 0 25 11
3 9 11 31 18 47 7 17 20 48 30 70 35 87 49 115 57 115 4 0 8 6 8 14 0 8 7 22
16 31 11 11 13 20 7 26 -7 7 -16 0 -29 -18z"/>
<path d="M2847 4245 c46 -45 63 -54 63 -35 0 6 -5 10 -10 10 -6 0 -27 16 -47
35 -20 19 -40 35 -45 35 -4 0 13 -20 39 -45z"/>
<path d="M940 4175 c-7 -9 -10 -18 -7 -21 3 -3 10 4 17 15 13 25 8 27 -10 6z"/>
<path d="M3045 4180 c3 -5 10 -10 16 -10 5 0 9 5 9 10 0 6 -7 10 -16 10 -8 0
-12 -4 -9 -10z"/>
<path d="M1926 4159 c-3 -13 -8 -71 -11 -129 -4 -90 -14 -188 -29 -290 -2 -14
-4 -43 -6 -65 l-2 -40 -9 30 c-13 43 -28 135 -39 245 -12 115 -38 244 -39 190
0 -55 17 -276 29 -365 7 -44 16 -109 20 -145 5 -36 12 -85 15 -110 l6 -45 -15
33 c-17 36 -31 39 -64 16 -26 -18 -30 -1 -7 30 19 25 19 56 1 56 -17 0 -29
-30 -21 -52 8 -19 -35 -54 -62 -50 -19 3 -21 -1 -17 -27 3 -16 0 -32 -6 -36
-5 -3 -10 0 -10 7 -1 8 -7 5 -16 -7 -15 -19 -15 -19 -9 5 3 15 0 33 -8 44 -13
18 -15 18 -32 -12 -24 -39 -45 -49 -52 -22 -8 29 -83 30 -83 1 0 -11 -5 -21
-11 -23 -6 -2 -9 -13 -6 -23 5 -19 5 -19 12 3 9 27 65 33 65 7 0 -36 -33 -54
-95 -53 -87 1 -135 -10 -135 -32 0 -10 6 -21 13 -23 7 -3 5 -6 -5 -6 -10 -1
-18 -6 -18 -12 0 -5 -4 -8 -9 -5 -17 11 -71 -15 -71 -35 0 -14 -7 -19 -25 -19
-17 0 -23 4 -19 14 7 19 -14 30 -31 16 -11 -9 -15 -5 -20 23 -6 33 0 199 11
285 4 38 3 43 -13 40 -19 -3 -20 -9 -42 -208 -6 -52 -13 -111 -17 -130 -3 -19
-5 -36 -4 -38 1 -2 -5 -13 -13 -26 -9 -13 -19 -39 -22 -60 -4 -20 -11 -36 -16
-36 -5 0 -5 10 0 23 5 12 6 36 4 54 -4 28 -7 30 -19 18 -8 -7 -14 -22 -14 -32
-1 -14 -4 -11 -16 10 -19 35 -27 34 -22 -3 3 -19 0 -31 -10 -35 -11 -4 -12 -9
-3 -19 9 -10 8 -16 -4 -26 -8 -7 -15 -19 -15 -26 0 -8 -6 -14 -14 -14 -19 0
-33 23 -18 28 7 2 17 13 23 24 9 16 8 19 -2 13 -9 -6 -11 -3 -6 8 3 10 2 17
-3 17 -5 0 -11 -10 -13 -22 l-4 -23 -2 23 c0 12 -6 22 -12 22 -9 0 -10 -21 -5
-72 4 -48 3 -68 -3 -58 -13 19 -18 5 -25 -65 -7 -66 -22 -176 -35 -250 -6 -33
-15 -93 -21 -133 -10 -80 -11 -84 -42 -187 -34 -117 -107 -271 -189 -400 -45
-72 -99 -175 -91 -175 22 0 127 146 243 335 30 48 62 99 71 113 10 15 26 43
36 62 10 19 38 70 60 113 23 43 42 88 42 100 0 12 11 40 24 62 13 22 38 69 55
104 17 35 34 61 38 57 10 -10 32 -212 32 -303 1 -46 8 -156 17 -245 10 -105
13 -198 9 -263 -7 -112 -32 -301 -40 -316 -4 -5 -4 -9 -1 -9 13 0 44 77 76
190 7 25 16 58 21 74 5 16 9 45 9 64 0 31 9 68 28 122 3 8 9 -10 13 -40 11
-84 53 -307 69 -365 5 -16 14 -65 21 -107 6 -43 15 -76 19 -73 4 2 10 41 14
86 4 45 17 128 30 183 13 56 29 130 35 166 23 121 55 241 62 228 9 -17 29
-158 39 -280 5 -54 11 -102 14 -107 6 -10 35 -495 37 -611 l1 -75 22 50 c21
45 60 156 101 285 8 25 26 91 40 148 29 116 44 154 56 146 5 -3 9 -17 9 -32 0
-15 7 -59 16 -97 19 -89 43 -255 45 -320 2 -55 8 0 28 255 16 198 32 201 76
15 16 -66 46 -172 67 -235 35 -106 37 -111 33 -60 -10 96 -17 391 -11 416 10
37 28 29 61 -27 17 -28 40 -63 52 -78 13 -14 23 -31 23 -38 0 -6 4 -13 8 -15
4 -1 25 -37 45 -78 56 -110 77 -147 77 -130 0 15 -47 112 -90 185 -13 22 -34
63 -48 90 -36 75 -125 222 -204 339 -39 57 -48 79 -48 113 0 24 4 43 9 43 4 0
16 -21 26 -47 23 -64 76 -163 86 -163 4 0 9 -6 12 -12 8 -24 -2 17 -17 72 -9
30 -16 68 -16 84 0 16 -4 43 -9 60 -44 149 -55 298 -41 591 6 132 15 269 21
305 5 36 11 76 13 90 6 38 24 80 35 80 8 0 51 -98 51 -118 0 -23 137 -419 162
-469 13 -27 6 -39 -29 -48 -85 -20 -186 -125 -213 -219 l-12 -45 56 -98 c60
-106 93 -150 103 -139 3 3 -3 25 -15 48 -34 68 -53 120 -62 168 -16 82 45 172
145 215 22 8 49 15 60 13 11 -1 31 4 45 12 16 8 59 13 122 13 99 0 121 9 71
28 -16 5 -40 15 -54 22 -17 8 -52 11 -98 7 -40 -3 -76 -3 -81 0 -10 6 -33 86
-55 195 -41 198 -65 973 -35 1120 7 33 12 77 11 97 -1 20 3 39 9 43 5 3 10 21
10 38 l-1 32 -14 -40 c-8 -21 -16 -57 -18 -80 -6 -48 -15 -92 -27 -120 -8 -21
-23 -73 -40 -142 -8 -32 -16 -43 -30 -43 -24 0 -25 -9 -4 -25 20 -14 11 -55
-12 -55 -10 0 -13 7 -8 24 6 27 -11 45 -20 20 -8 -22 -26 -8 -26 21 0 31 -11
37 -35 19 -10 -8 -15 -14 -9 -14 5 0 9 -36 10 -80 1 -44 -3 -80 -7 -80 -13 0
-19 162 -8 196 4 11 10 115 14 230 3 115 8 237 9 271 3 66 -8 105 -18 62z m63
-711 c1 -10 -3 -18 -9 -18 -5 0 -10 19 -9 43 1 36 2 38 9 17 4 -14 8 -33 9
-42z m-269 -12 c0 -3 -4 -8 -10 -11 -5 -3 -10 -1 -10 4 0 6 5 11 10 11 6 0 10
-2 10 -4z m281 -49 c-10 -9 -11 -8 -5 6 3 10 9 15 12 12 3 -3 0 -11 -7 -18z
m-191 4 c0 -6 -4 -13 -10 -16 -5 -3 -10 1 -10 9 0 9 5 16 10 16 6 0 10 -4 10
-9z m-73 -23 c-3 -8 -6 -5 -6 6 -1 11 2 17 5 13 3 -3 4 -12 1 -19z m183 -38
c0 -5 -4 -10 -10 -10 -5 0 -10 5 -10 10 0 6 5 10 10 10 6 0 10 -4 10 -10z
m-363 -122 c-3 -8 -6 -5 -6 6 -1 11 2 17 5 13 3 -3 4 -12 1 -19z m67 6 c3 -8
2 -12 -4 -9 -6 3 -10 10 -10 16 0 14 7 11 14 -7z m-664 -114 c0 -11 -2 -20 -4
-20 -2 0 -6 9 -9 20 -3 11 -1 20 4 20 5 0 9 -9 9 -20z m80 -24 c0 -8 -4 -18
-10 -21 -5 -3 -10 3 -10 14 0 12 5 21 10 21 6 0 10 -6 10 -14z m-103 -48 c-3
-8 -6 -5 -6 6 -1 11 2 17 5 13 3 -3 4 -12 1 -19z m-25 -30 c-7 -7 -12 -8 -12
-2 0 14 12 26 19 19 2 -3 -1 -11 -7 -17z m-35 -40 c-3 -7 -5 -2 -5 12 0 14 2
19 5 13 2 -7 2 -19 0 -25z"/>
<path d="M891 4095 c-13 -25 -21 -48 -17 -52 3 -3 6 -1 6 6 0 7 11 27 25 45
26 34 30 46 17 46 -4 0 -18 -20 -31 -45z"/>
<path d="M2178 4104 c-2 -19 0 -37 4 -40 4 -3 8 13 8 35 0 51 -6 53 -12 5z"/>
<path d="M3022 4100 c14 -22 24 -19 15 5 -4 8 -11 15 -17 15 -6 0 -6 -7 2 -20z"/>
<path d="M2611 4064 c0 -11 3 -14 6 -6 3 7 2 16 -1 19 -3 4 -6 -2 -5 -13z"/>
<path d="M2171 4014 c0 -11 3 -14 6 -6 3 7 2 16 -1 19 -3 4 -6 -2 -5 -13z"/>
<path d="M2400 3982 c0 -7 7 -20 15 -28 19 -20 20 -4 0 22 -9 12 -14 14 -15 6z"/>
<path d="M2647 3951 c-3 -15 -1 -21 10 -21 12 0 14 -7 10 -29 -4 -20 -2 -31 8
-35 17 -6 20 -61 5 -71 -6 -4 -10 5 -10 20 0 20 -4 26 -15 21 -8 -3 -19 2 -24
12 -7 12 -13 14 -21 6 -8 -8 -7 -15 4 -27 18 -17 21 -47 6 -47 -5 0 -10 9 -10
20 0 11 -5 20 -10 20 -16 0 -24 -31 -11 -39 7 -5 10 -18 6 -32 -3 -14 -1 -38
5 -54 9 -28 9 -29 -5 -11 -8 11 -15 26 -15 34 0 8 -8 20 -17 27 -15 11 -16 16
-4 38 7 14 11 31 8 39 -4 9 -6 7 -6 -5 -1 -10 -5 -15 -11 -12 -5 3 -10 1 -10
-4 0 -21 -18 -11 -24 13 -8 31 -36 43 -36 16 0 -11 5 -20 10 -20 6 0 10 -6 10
-14 0 -8 4 -16 8 -18 4 -1 25 -37 45 -78 53 -106 84 -157 147 -240 30 -40 80
-110 110 -154 64 -94 142 -192 290 -362 58 -66 122 -140 143 -164 44 -52 50
-33 9 31 -54 83 -151 250 -207 354 -18 33 -46 83 -63 110 -17 28 -51 93 -76
145 -47 95 -52 108 -121 255 -20 44 -45 98 -56 121 -10 23 -19 48 -19 56 0 8
-7 23 -15 34 -8 10 -15 26 -15 35 0 8 -6 23 -13 34 -13 17 -14 17 -20 -4z m70
-203 c-3 -7 -5 -2 -5 12 0 14 2 19 5 13 2 -7 2 -19 0 -25z m-92 -17 c3 -5 1
-12 -5 -16 -5 -3 -10 1 -10 9 0 18 6 21 15 7z m5 -87 c0 -8 -4 -12 -10 -9 -5
3 -10 10 -10 16 0 5 5 9 10 9 6 0 10 -7 10 -16z"/>
<path d="M802 3924 c-7 -8 -12 -20 -9 -27 2 -7 9 -2 16 11 15 28 11 36 -7 16z"/>
<path d="M2610 3894 c0 -8 5 -12 10 -9 6 3 10 10 10 16 0 5 -4 9 -10 9 -5 0
-10 -7 -10 -16z"/>
<path d="M2457 3893 c-7 -11 10 -40 18 -31 4 4 3 14 -3 24 -5 9 -12 12 -15 7z"/>
<path d="M2570 3864 c0 -8 5 -12 10 -9 6 3 10 10 10 16 0 5 -4 9 -10 9 -5 0
-10 -7 -10 -16z"/>
<path d="M735 3810 c-3 -5 -1 -10 4 -10 6 0 11 5 11 10 0 6 -2 10 -4 10 -3 0
-8 -4 -11 -10z"/>
<path d="M825 3792 l-19 -27 24 16 c24 16 38 39 23 39 -4 0 -17 -13 -28 -28z"/>
<path d="M675 3710 c-3 -5 -1 -10 4 -10 6 0 11 5 11 10 0 6 -2 10 -4 10 -3 0
-8 -4 -11 -10z"/>
<path d="M740 3699 c0 -5 5 -7 10 -4 6 3 10 8 10 11 0 2 -4 4 -10 4 -5 0 -10
-5 -10 -11z"/>
<path d="M642 3659 c-14 -22 -7 -25 14 -5 8 8 11 17 6 20 -4 2 -13 -4 -20 -15z"/>
<path d="M1980 3636 c0 -8 5 -18 10 -21 6 -3 10 3 10 14 0 12 -4 21 -10 21 -5
0 -10 -6 -10 -14z"/>
<path d="M2040 3615 c0 -8 4 -15 10 -15 5 0 7 7 4 15 -4 8 -8 15 -10 15 -2 0
-4 -7 -4 -15z"/>
<path d="M644 3598 l-19 -23 23 19 c12 11 22 21 22 23 0 8 -8 2 -26 -19z"/>
<path d="M553 3538 c-20 -26 -34 -58 -24 -58 5 0 13 10 17 23 4 12 12 25 18
29 6 4 8 10 5 13 -4 3 -11 0 -16 -7z"/>
<path d="M901 3446 c-14 -55 -15 -94 -2 -80 10 10 27 124 18 124 -2 0 -10 -20
-16 -44z"/>
<path d="M461 3432 c-19 -20 -51 -55 -70 -77 -36 -39 -36 -39 -6 -20 42 27
141 135 124 135 -8 0 -29 -17 -48 -38z"/>
<path d="M871 3273 c1 -34 2 -35 9 -13 11 36 11 50 0 50 -5 0 -10 -17 -9 -37z"/>
<path d="M1154 3285 c-6 -14 3 -52 10 -44 2 2 6 16 10 32 7 29 -10 39 -20 12z"/>
<path d="M1265 3290 c-3 -5 -1 -10 4 -10 6 0 11 5 11 10 0 6 -2 10 -4 10 -3 0
-8 -4 -11 -10z"/>
<path d="M980 3215 c0 -8 2 -15 4 -15 2 0 6 7 10 15 3 8 1 15 -4 15 -6 0 -10
-7 -10 -15z"/>
<path d="M857 3203 c-11 -10 -8 -73 3 -73 6 0 10 18 10 40 0 41 -2 45 -13 33z"/>
<path d="M3681 3122 c-19 -9 -43 -29 -54 -44 -53 -71 -15 -266 75 -392 49 -68
130 -148 144 -142 22 8 16 34 -11 52 -14 9 -25 26 -25 38 0 32 37 86 59 86 10
0 24 7 32 16 12 14 14 14 25 -1 11 -14 14 -13 34 15 16 22 27 29 41 25 31 -10
33 17 8 102 -28 100 -57 151 -115 202 -70 61 -148 77 -213 43z m-5 -87 c6 -15
-11 -45 -26 -45 -14 0 -20 32 -9 46 15 18 28 18 35 -1z m52 -163 c2 -7 -6 -12
-17 -12 -21 0 -27 11 -14 24 9 9 26 2 31 -12z"/>
<path d="M5748 3133 c-10 -2 -18 -11 -18 -18 0 -7 -6 -16 -12 -18 -7 -3 -8 -6
-2 -6 6 -1 21 10 34 24 13 14 22 24 19 24 -2 -1 -12 -3 -21 -6z"/>
<path d="M5705 2930 c3 -5 10 -10 16 -10 5 0 9 5 9 10 0 6 -7 10 -16 10 -8 0
-12 -4 -9 -10z"/>
<path d="M5760 2900 c18 -12 88 -12 115 0 14 6 -4 9 -55 9 -52 1 -70 -2 -60
-9z"/>
<path d="M4000 2672 c0 -11 -3 -28 -6 -37 -5 -13 -2 -16 12 -13 22 4 27 59 7
66 -8 2 -13 -5 -13 -16z"/>
<path d="M3910 2590 c0 -5 7 -10 15 -10 8 0 15 5 15 10 0 6 -7 10 -15 10 -8 0
-15 -4 -15 -10z"/>
<path d="M2074 2255 c-17 -43 -18 -60 0 -127 26 -102 107 -237 164 -274 36
-24 38 -9 4 31 -36 40 -33 59 9 74 16 5 29 17 29 25 0 9 7 16 15 16 19 0 19
18 -1 77 -45 132 -110 213 -171 213 -29 0 -36 -5 -49 -35z m50 -61 c7 -17 0
-34 -14 -34 -11 0 -21 30 -14 41 8 14 21 11 28 -7z m46 -144 c0 -5 -2 -10 -4
-10 -3 0 -8 5 -11 10 -3 6 -1 10 4 10 6 0 11 -4 11 -10z"/>
<path d="M5091 2214 c0 -11 3 -14 6 -6 3 7 2 16 -1 19 -3 4 -6 -2 -5 -13z"/>
<path d="M5570 1950 c-6 -11 -7 -20 -2 -20 5 0 17 9 27 20 16 18 16 20 2 20
-9 0 -21 -9 -27 -20z"/>
<path d="M2311 1913 c7 -10 15 -20 16 -22 2 -2 3 5 3 17 0 14 -6 22 -16 22
-14 0 -15 -3 -3 -17z"/>
<path d="M5535 1877 c-8 -23 -20 -71 -29 -122 -6 -29 -6 -29 10 5 24 50 44
129 34 135 -4 3 -11 -5 -15 -18z"/>
<path d="M5480 1670 c0 -5 5 -10 10 -10 6 0 10 5 10 10 0 6 -4 10 -10 10 -5 0
-10 -4 -10 -10z"/>
<path d="M2260 1218 c0 -9 5 -20 10 -23 13 -8 13 5 0 25 -8 13 -10 13 -10 -2z"/>
<path d="M5297 1190 c-9 -10 -24 -34 -33 -52 -9 -18 -24 -42 -33 -52 -13 -15
-13 -18 -1 -14 7 2 23 20 33 39 11 19 23 36 27 39 10 7 32 51 28 56 -2 2 -11
-5 -21 -16z"/>
<path d="M2300 1125 c0 -8 3 -15 8 -15 4 0 13 -14 21 -31 7 -16 15 -28 18 -26
5 6 -35 87 -42 87 -3 0 -5 -7 -5 -15z"/>
<path d="M2360 1028 c0 -8 7 -21 15 -28 19 -16 19 -1 0 24 -12 16 -15 17 -15
4z"/>
<path d="M5870 952 c0 -18 22 -62 31 -62 5 0 3 12 -3 28 -15 33 -28 50 -28 34z"/>
<path d="M5103 920 c-11 -16 -10 -18 2 -14 8 4 15 12 15 20 0 19 -3 18 -17 -6z"/>
<path d="M2440 904 c0 -13 49 -71 50 -59 0 6 -11 23 -25 39 -14 16 -25 25 -25
20z"/>
<path d="M5011 834 c-29 -26 -49 -49 -47 -52 6 -5 86 63 99 85 14 23 1 14 -52
-33z"/>
<path d="M2506 815 c4 -8 11 -15 16 -15 6 0 5 6 -2 15 -7 8 -14 15 -16 15 -2
0 -1 -7 2 -15z"/>
<path d="M2570 752 c6 -13 14 -21 18 -18 3 4 -2 14 -12 24 -18 16 -18 16 -6
-6z"/>
<path d="M4889 718 c-12 -23 -12 -23 10 -4 23 21 26 26 11 26 -5 0 -15 -10
-21 -22z"/>
<path d="M2606 715 c4 -8 11 -15 16 -15 6 0 5 6 -2 15 -7 8 -14 15 -16 15 -2
0 -1 -7 2 -15z"/>
<path d="M2641 683 c1 -12 79 -77 79 -66 0 5 -18 24 -40 42 -22 17 -40 28 -39
24z"/>
<path d="M6325 660 c-14 -16 -15 -20 -4 -20 16 0 39 19 39 32 0 14 -16 9 -35
-12z"/>
<path d="M2836 535 c27 -19 53 -35 57 -35 5 0 21 -8 35 -18 15 -10 40 -24 57
-31 29 -13 29 -12 12 7 -10 11 -30 23 -45 27 -15 4 -29 10 -32 14 -6 10 -116
71 -126 71 -4 0 15 -16 42 -35z"/>
<path d="M6180 560 c0 -5 7 -7 15 -4 8 4 15 8 15 10 0 2 -7 4 -15 4 -8 0 -15
-4 -15 -10z"/>
<path d="M6123 539 c-32 -9 -54 -29 -33 -29 15 0 80 28 80 34 0 7 -7 7 -47 -5z"/>
<path d="M6025 525 c3 -8 7 -23 10 -32 4 -11 9 -13 16 -6 7 7 7 17 -3 32 -15
24 -30 28 -23 6z"/>
<path d="M3068 413 c7 -3 16 -2 19 1 4 3 -2 6 -13 5 -11 0 -14 -3 -6 -6z"/>
<path d="M3120 385 c14 -8 32 -14 40 -15 8 0 2 7 -14 15 -36 19 -59 19 -26 0z"/>
<path d="M4432 298 c-50 -46 -88 -85 -86 -87 8 -8 194 149 194 164 0 16 -27
-3 -108 -77z"/>
<path d="M5582 208 c-24 -17 -41 -32 -38 -35 3 -3 18 4 34 16 17 12 34 21 40
21 5 0 15 7 22 15 21 26 -10 17 -58 -17z"/>
<path d="M4275 170 c-22 -16 -66 -46 -97 -67 -58 -39 -70 -53 -43 -53 8 0 15
5 15 10 0 6 5 10 11 10 6 0 24 11 41 25 16 14 38 25 49 25 19 0 64 -60 70 -95
2 -10 10 -20 17 -23 19 -6 5 45 -25 88 -29 43 -29 57 -1 87 30 32 11 28 -37
-7z"/>
<path d="M3818 93 c7 -3 16 -2 19 1 4 3 -2 6 -13 5 -11 0 -14 -3 -6 -6z"/>
<path d="M3884 65 c15 -8 36 -15 45 -15 9 1 1 7 -18 15 -44 19 -64 19 -27 0z"/>
<path d="M3960 40 c0 -6 24 -10 57 -10 68 0 66 5 -4 14 -34 4 -53 3 -53 -4z"/>
</g>
</svg>
